<?xml version="1.0" encoding="utf-8"?>
<!-- Generator: Adobe Illustrator 22.1.0, SVG Export Plug-In . SVG Version: 6.00 Build 0)  -->
<svg version="1.1" id="Capa_1" xmlns="http://www.w3.org/2000/svg" xmlns:xlink="http://www.w3.org/1999/xlink" x="0px" y="0px"
	 viewBox="0 0 90 79" style="enable-background:new 0 0 90 79;" xml:space="preserve">
<g>
	<path d="M56.6,11.5c18.3,0,33.1,14.8,33.1,33.1c0,18.3-14.8,33.1-33.1,33.1c-18.3,0-33.1-14.8-33.1-33.1
		c0-16.8,12.5-30.7,28.7-32.8l0.2,2.1c-15.2,2-26.9,15-26.9,30.7c0,17.1,13.9,31,31,31c17.1,0,31-13.9,31-31c0-17.1-13.9-31-31-31
		c-0.7,0-1.4,0-2.1,0.1l-0.2-2.1C55.1,11.5,55.8,11.5,56.6,11.5z"/>
	<path d="M65.3,38.2c0.6,0.3,0.8,1,0.4,1.6c-0.3,0.6-1,0.8-1.6,0.4c-0.1-0.1-0.2-0.2-0.3-0.3c-0.4,0.2-0.9,0.2-1.4,0l-0.2-0.1
		c-0.4-0.2-0.7-0.6-0.8-1c0-0.1-0.1-0.2-0.1-0.4c-0.1,0-0.3-0.1-0.4-0.1c-0.6-0.3-0.8-1-0.4-1.6c0.3-0.6,1-0.8,1.6-0.4l0.2,0.2
		c0.5-0.3,1.2-0.3,1.8,0c0.6,0.3,0.9,0.9,1,1.5L65.3,38.2z M65.2,39.4c0.1-0.2,0-0.5-0.2-0.6c-0.2-0.1-0.5,0-0.6,0.2
		c-0.1,0.2,0,0.5,0.2,0.6C64.8,39.7,65.1,39.6,65.2,39.4z M63.8,38.6c0.2-0.4,0.1-0.9-0.3-1.1c-0.4-0.2-0.9-0.1-1.1,0.3
		c-0.2,0.4-0.1,0.9,0.3,1.1C63.1,39.2,63.6,39,63.8,38.6z M61.8,37.5c0.1-0.2,0-0.5-0.2-0.6c-0.2-0.1-0.5,0-0.6,0.2
		c-0.1,0.2,0,0.5,0.2,0.6C61.4,37.8,61.7,37.7,61.8,37.5z"/>
	<path d="M65,38.8c0.2,0.1,0.3,0.4,0.2,0.6c-0.1,0.2-0.4,0.3-0.6,0.2c-0.2-0.1-0.3-0.4-0.2-0.6C64.6,38.8,64.8,38.7,65,38.8z"/>
	<path d="M63.5,37.6c0.4,0.2,0.5,0.7,0.3,1.1c-0.2,0.4-0.7,0.5-1.1,0.3c-0.4-0.2-0.5-0.7-0.3-1.1C62.6,37.5,63.1,37.4,63.5,37.6z"/>
	<path d="M62.3,39.8l0.2,0.1l-2.7,2.6v0l-2.2,2.1c0-0.5-0.4-1-0.9-1v0l0.4-0.4l1.7-1.7l2.6-2.6C61.6,39.2,61.9,39.6,62.3,39.8z"/>
	<path d="M61.6,37c0.2,0.1,0.3,0.4,0.2,0.6c-0.1,0.2-0.4,0.3-0.6,0.2c-0.2-0.1-0.3-0.4-0.2-0.6C61.2,36.9,61.4,36.8,61.6,37z"/>
	<path d="M59.8,42.5c0.4,0.6,0.6,1.3,0.6,2.1c0,2.1-1.7,3.9-3.9,3.9c-0.8,0-1.6-0.3-2.3-0.7c-0.4-0.3-0.7-0.6-1-1
		c-0.4-0.6-0.6-1.3-0.6-2.1c0-1.7,1.1-3.1,2.6-3.6l0.4,3.3c0,0.1-0.1,0.2-0.1,0.4c0,0.6,0.5,1,1,1c0.6,0,1-0.5,1-1L59.8,42.5
		C59.8,42.5,59.8,42.5,59.8,42.5z"/>
	<path d="M58.8,41.5l-1.7,1.7l-0.2-2.4C57.6,40.8,58.2,41.1,58.8,41.5z"/>
	<path d="M56.9,40.8l0.2,2.4l-0.4,0.4v0l-0.1,0c-0.4,0-0.8,0.3-0.9,0.6L55.3,41l-2.9-27.1l-0.2-2.1l-0.1-0.9l2.2-0.2l0.1,0.9
		l0.2,2.1L56.9,40.8z"/>
	<path d="M55.6,44.3c0.1-0.4,0.5-0.6,0.9-0.6l0.1,0c0.5,0,0.9,0.5,0.9,1c0,0.6-0.5,1-1,1c-0.6,0-1-0.5-1-1
		C55.6,44.5,55.6,44.4,55.6,44.3z"/>
	<path d="M55,0.3c0.7,0,1.2,0.5,1.2,1.2S55.7,2.7,55,2.7c-0.2,0-0.3,0-0.5-0.1c-0.3-0.1-0.6-0.4-0.7-0.8c0-0.1-0.1-0.2-0.1-0.4
		C53.8,0.8,54.4,0.3,55,0.3z"/>
	<path d="M54.6,2.6l-1,1.6l-0.2-1.8l0.5-0.5C54,2.2,54.2,2.5,54.6,2.6z"/>
	<path d="M54.3,47.8L54.3,47.8l-2.7,2.6h0c-0.1-0.3-0.3-0.5-0.5-0.7c-0.2-0.2-0.4-0.3-0.6-0.4l2.7-2.6
		C53.6,47.1,53.9,47.5,54.3,47.8z"/>
	<path d="M15,64.6c0.2-0.4,0.3-0.9,0.4-1.5l1.9-8l0.2-0.9L20.6,41c2.1-8.7,5.8-16.3,11.2-21.9c0.1-0.1,0.2-0.3,0.4-0.4
		c5-5.1,11.6-8.5,19.8-9.7L54,8.8l0.2,1.9l-2.2,0.2C35.4,13.3,26.1,25.1,22.2,41l-3.5,13.8l-0.2,0.9l-2.2,8.6
		c-0.2,0.7-0.5,1.4-0.9,1.9c-0.6,0.7-1.4,1.1-2.5,1.1c-0.7,0-1.2-0.6-1.2-1.2c0-0.7,0.6-1.2,1.2-1.2c0.5,0,1,0.3,1.2,0.8
		c0.4,0,0.6-0.3,0.8-0.7L15,64.6z M13.6,66c0-0.4-0.3-0.7-0.7-0.7c-0.4,0-0.7,0.3-0.7,0.7c0,0.4,0.3,0.7,0.7,0.7
		C13.3,66.7,13.6,66.4,13.6,66z"/>
	<polygon points="52,8.6 51.9,8.1 51.6,2 53.3,2 53.3,2.4 53.5,4.2 54,8.8 52,9 	"/>
	<path d="M52.1,51.5c0.5,0.4,0.5,1.2,0,1.6c-0.4,0.5-1.2,0.5-1.6,0l-0.2-0.2c-0.6,0.2-1.3,0-1.7-0.5c-0.5-0.5-0.7-1.1-0.6-1.7
		l-0.2-0.2c-0.5-0.4-0.5-1.2,0-1.6c0.4-0.5,1.2-0.5,1.6,0c0.1,0.1,0.2,0.2,0.3,0.3c0.3,0,0.6,0,0.9,0.1c0.2,0.1,0.4,0.2,0.6,0.4
		c0.2,0.2,0.4,0.4,0.5,0.7c0.1,0.3,0.2,0.5,0.1,0.8C51.9,51.3,52,51.4,52.1,51.5z M51.7,52.6c0.2-0.2,0.1-0.4,0-0.6
		c-0.2-0.2-0.4-0.2-0.6,0c-0.2,0.2-0.2,0.4,0,0.6C51.3,52.8,51.5,52.8,51.7,52.6z M50.6,51.6c0.3-0.3,0.3-0.8,0-1.1
		c-0.3-0.3-0.8-0.3-1.1,0c-0.3,0.3-0.3,0.8,0,1.1C49.7,51.9,50.2,51.9,50.6,51.6z M48.9,50c0.2-0.2,0.1-0.4,0-0.6
		c-0.2-0.2-0.4-0.2-0.6,0c-0.2,0.2-0.2,0.4,0,0.6C48.5,50.2,48.7,50.1,48.9,50z"/>
	<path d="M44.4,9.4c-0.7,0.1-1.4,0.3-2.1,0.5c-1.9,0.5-3.6,1.2-5.2,1.9c-2.9,1.4-5,3.9-5,6.9l0,0c-0.1,0.1-0.3,0.3-0.4,0.4l0,0
		c-0.5-3,2-6.5,5.3-7.8c0.6-0.3,1.2-0.5,1.9-0.8c2.5-0.9,5.3-1.7,8.3-2.1l0.2,0c1.5-0.2,3-0.3,4.5-0.3l0,0.5
		C49.3,8.6,46.8,8.9,44.4,9.4z"/>
	<path d="M51.7,52.1c0.2,0.2,0.2,0.4,0,0.6c-0.2,0.2-0.4,0.2-0.6,0c-0.2-0.2-0.2-0.4,0-0.6C51.2,51.9,51.5,51.9,51.7,52.1z"/>
	<path d="M50.5,50.4c0.3,0.3,0.3,0.8,0,1.1c-0.3,0.3-0.8,0.3-1.1,0c-0.3-0.3-0.3-0.8,0-1.1C49.7,50.1,50.2,50.1,50.5,50.4z"/>
	<path d="M50.2,6.3c0.1,0.2-0.1,0.4-0.4,0.5c-0.6,0.3-1.1,0.5-1.7,0.7c-4,1.5-8.2,1.8-12.4,1.2l-0.2,0l-0.1,0c-0.5-0.1-1-0.3-1-0.7
		c0-0.4,0.4-0.7,0.8-0.6c4.7,1,9.6,0.6,14.1-1.2C49.6,6,50.1,6,50.2,6.3z"/>
	<path d="M48.9,49.4c0.2,0.2,0.2,0.4,0,0.6c-0.2,0.2-0.4,0.2-0.6,0c-0.2-0.2-0.2-0.4,0-0.6C48.4,49.2,48.7,49.2,48.9,49.4z"/>
	<path d="M44.4,9.4l0.1,0.5L43.8,10l-0.6,0.1l-0.7,0.2l-0.1-0.5C43,9.7,43.7,9.5,44.4,9.4z"/>
	<path d="M18.7,54.8c4.1,2.1,6.8,6.3,6.8,11.2c0,7-5.7,12.6-12.6,12.6C6,78.6,0.3,73,0.3,66c0-7,5.7-12.6,12.6-12.6
		c1.6,0,3.1,0.3,4.5,0.8l-0.2,0.9c-1.3-0.5-2.8-0.8-4.3-0.8C6.5,54.3,1.2,59.5,1.2,66c0,6.5,5.3,11.7,11.7,11.7
		c6.5,0,11.7-5.3,11.7-11.7c0-4.5-2.5-8.4-6.2-10.3L18.7,54.8z"/>
	<path d="M12.9,67.3c1.1,0,1.9-0.4,2.5-1.1c-0.1,1.3-1.2,2.4-2.5,2.4c-1.4,0-2.5-1.1-2.5-2.5c0-1.4,1.1-2.5,2.5-2.5
		c0.9,0,1.6,0.4,2,1.1l-0.1,0.3c-0.2,0.4-0.4,0.7-0.8,0.7c-0.2-0.4-0.6-0.8-1.2-0.8c-0.7,0-1.2,0.6-1.2,1.2
		C11.7,66.7,12.3,67.3,12.9,67.3z"/>
	<circle cx="12.9" cy="66" r="0.7"/>
	<path d="M18.6,55.1c4,2.1,6.7,6.2,6.7,11c0,3.4-1.4,6.5-3.6,8.7c-2.2,2.2-5.3,3.6-8.7,3.6c-3.4,0-6.5-1.4-8.7-3.6
		C2,72.5,0.6,69.4,0.6,66c0-3.4,1.4-6.5,3.6-8.7c2.2-2.2,5.3-3.6,8.7-3.6c1.6,0,3.1,0.3,4.4,0.8l0.2-0.6c-1.4-0.5-3-0.9-4.6-0.9
		C5.8,53.1,0,58.9,0,66S5.8,79,12.9,79c7.2,0,12.9-5.8,12.9-12.9c0-5-2.8-9.3-7-11.5L18.6,55.1z"/>
	<path d="M18.4,56c3.6,1.9,6,5.7,6,10.1c0,3.2-1.3,6-3.3,8.1c-2.1,2.1-4.9,3.3-8.1,3.3c-3.2,0-6-1.3-8.1-3.3C2.8,72,1.5,69.2,1.5,66
		c0-3.2,1.3-6,3.3-8.1c2.1-2.1,4.9-3.3,8.1-3.3c1.5,0,2.9,0.3,4.2,0.8l0.2-0.6C16,54.3,14.5,54,12.9,54C6.3,54,0.9,59.4,0.9,66
		c0,6.7,5.4,12,12.1,12c6.7,0,12.1-5.4,12.1-12c0-4.6-2.6-8.6-6.3-10.6L18.4,56z"/>
	<path d="M54.3,11.9c0.7,0,1.5-0.1,2.2-0.1c9.1,0,17.3,3.7,23.2,9.6c5.9,5.9,9.6,14.1,9.6,23.2c0,9.1-3.7,17.3-9.6,23.2
		c-5.9,5.9-14.1,9.6-23.2,9.6c-9.1,0-17.3-3.7-23.2-9.6c-5.9-5.9-9.6-14.1-9.6-23.2c0-16.6,12.4-30.4,28.5-32.5l-0.1-0.6
		c-16.4,2.2-29,16.2-29,33.1c0,18.5,15,33.4,33.4,33.4C75,78.1,90,63.1,90,44.6c0-18.5-15-33.4-33.4-33.4c-0.8,0-1.5,0-2.3,0.1
		L54.3,11.9z"/>
	<path d="M54.5,14c0.7,0,1.4-0.1,2-0.1c8.5,0,16.2,3.4,21.7,9c5.6,5.6,9,13.2,9,21.7c0,8.5-3.4,16.2-9,21.7c-5.6,5.6-13.2,9-21.7,9
		c-8.5,0-16.2-3.4-21.7-9c-5.6-5.6-9-13.2-9-21.7c0-15.6,11.6-28.4,26.6-30.4l-0.1-0.6C37,15.6,25.2,28.8,25.2,44.6
		c0,17.3,14,31.3,31.3,31.3c17.3,0,31.3-14,31.3-31.3c0-17.3-14-31.3-31.3-31.3c-0.7,0-1.4,0-2.1,0.1L54.5,14z"/>
	<path d="M35.5,8.3L35.5,8.3l-0.1,0.3L35.5,8.3c-0.3,0-0.5-0.1-0.6-0.2C34.8,8,34.8,8,34.8,7.9l0.1-0.2l0.2-0.1l0.1,0l0,0
		c1.7,0.4,3.4,0.5,5.1,0.5c3.1,0,6.2-0.6,9.2-1.8l-0.1-0.3l0.1,0.3l0.2,0l0.2,0l0.1,0l0.3-0.1l-0.3,0.1l0,0l0,0l0,0l0,0l0,0l0.1,0
		h-0.1l0,0l0.1,0h-0.1H50l-0.1-0.1l0,0.1H50l-0.1-0.1l0,0l0,0l0,0l0,0l0,0c0,0-0.1,0.1-0.3,0.2l0.1,0.3l-0.1-0.3
		C49.1,6.7,48.5,7,48,7.2l0,0c-2.7,1-5.5,1.5-8.3,1.5c-1.3,0-2.6-0.1-3.9-0.3L35.5,8.3l-0.1,0.6l0.2,0c1.3,0.2,2.7,0.3,4,0.3
		c2.9,0,5.8-0.5,8.5-1.5l0,0c0.6-0.2,1.2-0.4,1.7-0.7l0,0C50,7,50.2,6.9,50.3,6.9c0.1-0.1,0.3-0.2,0.3-0.5l-0.1-0.2l0,0
		c-0.1-0.2-0.2-0.3-0.4-0.3c-0.1-0.1-0.3-0.1-0.4-0.1c-0.1,0-0.3,0-0.4,0.1l0,0c-2.9,1.2-5.9,1.7-8.9,1.7c-1.7,0-3.3-0.2-5-0.5l0,0
		l-0.2,0c-0.2,0-0.5,0.1-0.6,0.3c-0.2,0.2-0.3,0.4-0.3,0.7c0,0.3,0.2,0.6,0.4,0.7c0.2,0.1,0.5,0.2,0.8,0.3l0,0l0.1,0L35.5,8.3z"/>
	<path d="M53.9,1.9l0.3-0.1l0-0.3c0-0.5,0.4-0.9,0.9-0.9c0.5,0,0.9,0.4,0.9,0.9c0,0.5-0.4,0.9-0.9,0.9c-0.1,0-0.2,0-0.3-0.1
		l-0.1,0.3l0.1-0.3c-0.2-0.1-0.4-0.3-0.5-0.6l0,0L53.9,1.9L53.6,2c0.1,0.4,0.5,0.8,0.9,1l0,0C54.6,3,54.8,3,55,3
		c0.8,0,1.5-0.7,1.5-1.5C56.5,0.7,55.8,0,55,0s-1.5,0.7-1.5,1.5c0,0.2,0,0.3,0.1,0.5L53.9,1.9L53.6,2L53.9,1.9z"/>
	<path d="M57.6,44.6h-0.3c0,0.4-0.3,0.7-0.7,0.7c-0.4,0-0.7-0.3-0.7-0.7l0-0.3c0.1-0.3,0.4-0.4,0.7-0.4v-0.3l0,0.3l0.1,0l0,0
		c0.4,0,0.7,0.3,0.7,0.7L57.6,44.6l0.3,0c0-0.7-0.5-1.3-1.2-1.3l0,0.3l0-0.3l-0.1,0l0,0c-0.6,0-1,0.3-1.2,0.8
		c-0.1,0.1-0.1,0.3-0.1,0.5c0,0.7,0.6,1.3,1.3,1.3c0.7,0,1.3-0.6,1.3-1.3L57.6,44.6L57.6,44.6z"/>
	<path d="M52,8.3L52,8.3c-2.7,0-5.3,0.3-7.6,0.8c-0.7,0.1-1.4,0.3-2.1,0.5l0.1,0.3l-0.1-0.3c-1.9,0.5-3.7,1.2-5.3,1.9l0,0
		c-3,1.4-5.2,4-5.2,7.2h0.6c0-2.8,1.9-5.3,4.8-6.6l0,0c1.6-0.7,3.3-1.4,5.2-1.9l0,0c0.7-0.2,1.3-0.3,2-0.5c2.3-0.5,4.9-0.8,7.5-0.8
		h0C52,8.9,52,8.3,52,8.3z"/>
	<path d="M47.2,8.1c-3,0.4-5.8,1.2-8.3,2.1c-0.7,0.3-1.3,0.5-1.9,0.8l0.1,0.3L36.9,11c-3.1,1.2-5.5,4.3-5.5,7.2c0,0.3,0,0.6,0.1,0.9
		l0.6-0.1c0-0.2-0.1-0.5-0.1-0.7c0-2.6,2.3-5.6,5.2-6.7l0,0c0.6-0.3,1.2-0.5,1.9-0.8c2.5-0.9,5.2-1.7,8.2-2.1L47.2,8.1z"/>
	<path d="M52,7.8L52,7.8c-1.6,0-3.1,0.1-4.6,0.3l0.1,0.6c1.5-0.2,3-0.3,4.5-0.3H52C52,8.4,52,7.8,52,7.8z"/>
	<path d="M35.4,8.6c0,0.7,0.5,1.2,1.1,1.6c0.6,0.4,1.5,0.6,2.5,0.6v-0.6c-0.9,0-1.6-0.2-2.1-0.5C36.3,9.4,36,9,36,8.6H35.4z"/>
	<path d="M47.8,7.5c0,0.3-0.2,0.6-0.4,0.6l0.1,0.3l0-0.3l-0.2,0l0.1,0.6l0.2,0l0,0c0.5-0.1,0.9-0.6,0.9-1.2H47.8z"/>
	<path d="M61.4,38.9l0.3-0.1c0-0.1-0.1-0.2-0.1-0.3c0-0.1-0.1-0.2-0.3-0.2l-0.3-0.1c-0.3-0.2-0.4-0.4-0.4-0.7c0-0.1,0-0.3,0.1-0.4
		c0.2-0.3,0.4-0.4,0.7-0.4c0.1,0,0.3,0,0.4,0.1l0.2-0.3l-0.2,0.3l0.2,0.2l0.3,0c0.2-0.1,0.5-0.2,0.7-0.2s0.5,0.1,0.8,0.2l0,0
		c0.5,0.3,0.8,0.8,0.8,1.3c0,0.1,0.1,0.2,0.2,0.3l0.3,0.1l0.1-0.3l-0.2,0.3c0.3,0.2,0.4,0.4,0.4,0.7c0,0.1,0,0.3-0.1,0.4l0,0
		C65.3,39.9,65,40,64.8,40c-0.1,0-0.3,0-0.4-0.1l-0.1,0.3l0.2-0.3l-0.2-0.2c-0.1-0.1-0.2-0.1-0.4-0.1c-0.2,0.1-0.4,0.1-0.6,0.1
		c-0.2,0-0.4,0-0.6-0.1l-0.1,0.3l0.1-0.3l-0.2-0.1l-0.1,0.3l0.2-0.3c-0.3-0.2-0.6-0.5-0.7-0.8l0,0L61.4,38.9L61.1,39
		c0.2,0.5,0.5,0.9,1,1.1l0,0l0.2,0.1l0,0c0.3,0.1,0.5,0.2,0.8,0.2c0.3,0,0.6-0.1,0.8-0.2l-0.1-0.3l-0.2,0.2c0.1,0.1,0.2,0.2,0.4,0.3
		l0,0c0.2,0.1,0.5,0.2,0.7,0.2c0.5,0,1-0.3,1.3-0.7l0,0c0.1-0.2,0.2-0.5,0.2-0.7c0-0.5-0.3-1-0.8-1.3l0,0l-0.3-0.1L65,38.1l0.3,0
		c0-0.7-0.4-1.4-1.1-1.8l-0.2,0.3l0.2-0.3c-0.3-0.2-0.7-0.3-1.1-0.3s-0.7,0.1-1,0.3l0.1,0.3l0.2-0.3l-0.2-0.2l0,0
		c-0.2-0.1-0.5-0.2-0.7-0.2c-0.5,0-1,0.3-1.3,0.7c-0.1,0.2-0.2,0.5-0.2,0.7c0,0.5,0.3,1,0.7,1.3c0.2,0.1,0.3,0.2,0.5,0.2l0-0.3
		L61,38.6c0,0.1,0.1,0.3,0.1,0.4L61.4,38.9L61.1,39L61.4,38.9z"/>
	<path d="M63.8,38.6l-0.3-0.1c-0.1,0.2-0.3,0.2-0.4,0.2l-0.2-0.1l0,0c-0.2-0.1-0.2-0.2-0.2-0.4l0.1-0.2l0,0c0.1-0.2,0.2-0.2,0.4-0.2
		l0.2,0.1l0,0c0.2,0.1,0.2,0.3,0.2,0.4l-0.1,0.2l0,0L63.8,38.6l0.3,0.2c0.1-0.2,0.1-0.4,0.1-0.5c0-0.4-0.2-0.8-0.6-1l-0.1,0.3
		l0.2-0.3c-0.2-0.1-0.4-0.1-0.5-0.1c-0.4,0-0.8,0.2-1,0.6l0,0c-0.1,0.2-0.1,0.4-0.1,0.5c0,0.4,0.2,0.8,0.6,1l0.1-0.3l-0.2,0.3
		c0.2,0.1,0.4,0.1,0.5,0.1c0.4,0,0.8-0.2,1-0.6L63.8,38.6l0.3,0.2L63.8,38.6z"/>
	<path d="M61.8,37.5l-0.3-0.1l-0.1,0.1l0,0l0,0l-0.1-0.1l0,0l0,0l0.1-0.1l0,0l0,0l0.1,0.1l0,0l0,0L61.8,37.5l0.3,0.2
		c0.1-0.1,0.1-0.2,0.1-0.4c0-0.3-0.1-0.5-0.4-0.6L61.6,37l0.2-0.3c-0.1-0.1-0.2-0.1-0.4-0.1c-0.3,0-0.5,0.1-0.6,0.4l0.3,0.1L60.8,37
		c-0.1,0.1-0.1,0.2-0.1,0.4c0,0.3,0.1,0.5,0.4,0.6l0.1-0.3l-0.2,0.3c0.1,0.1,0.2,0.1,0.4,0.1c0.3,0,0.5-0.1,0.6-0.4L61.8,37.5
		l0.3,0.2L61.8,37.5z"/>
	<path d="M65.2,39.4l-0.3-0.2l-0.1,0.1l0,0l0,0l-0.1-0.1l0,0l0,0l0.1-0.1l0.1,0l0.1-0.3l-0.2,0.3l0.1,0.1l0,0.1L65.2,39.4l-0.3-0.2
		L65.2,39.4l0.3,0.1c0.1-0.1,0.1-0.2,0.1-0.3c0-0.3-0.1-0.5-0.4-0.6l0,0c-0.1-0.1-0.2-0.1-0.4-0.1c-0.3,0-0.5,0.1-0.6,0.4l0.3,0.1
		l-0.3-0.2c-0.1,0.1-0.1,0.2-0.1,0.4c0,0.3,0.1,0.5,0.4,0.6l0.1-0.3l-0.2,0.3c0.1,0.1,0.2,0.1,0.4,0.1c0.3,0,0.5-0.1,0.6-0.4l0,0
		L65.2,39.4z"/>
	<polygon points="56.8,43.8 57.3,43.4 57.3,43.4 59,41.7 61.7,39.1 61.2,38.6 58.6,41.2 56.8,43 56.8,43 56.4,43.4 	"/>
	<polygon points="57.8,44.9 60,42.7 60.1,42.5 60.1,42.5 59.8,42.5 60,42.7 62.7,40.1 62.3,39.7 59.6,42.3 59.5,42.5 59.5,42.5 
		59.8,42.5 59.6,42.3 57.4,44.4 	"/>
	<path d="M13.6,66h-0.3c0,0.2-0.2,0.3-0.3,0.3s-0.3-0.2-0.3-0.3s0.2-0.3,0.3-0.3c0.2,0,0.3,0.2,0.3,0.3H13.6h0.3c0-0.5-0.4-1-1-1
		c-0.5,0-1,0.4-1,1c0,0.5,0.4,1,1,1c0.5,0,1-0.4,1-1H13.6z"/>
	<path d="M59.5,42.7c0.4,0.6,0.6,1.2,0.6,2c0,2-1.6,3.6-3.6,3.6c-0.8,0-1.5-0.2-2.1-0.7l0,0c-0.4-0.3-0.7-0.6-0.9-0.9l-0.3,0.2
		l0.3-0.2C53.2,46,53,45.3,53,44.6c0-1.5,1-2.9,2.4-3.4l-0.2-0.6c-1.6,0.6-2.8,2.1-2.8,3.9c0,0.8,0.2,1.6,0.7,2.3l0,0
		c0.3,0.4,0.6,0.8,1.1,1.1l0.2-0.3L54.1,48c0.7,0.5,1.5,0.8,2.5,0.8c2.3,0,4.2-1.9,4.2-4.2c0-0.8-0.3-1.6-0.7-2.3L59.5,42.7z"/>
	<path d="M56.8,41.1c0.7,0,1.3,0.3,1.8,0.6l0.4-0.5c-0.6-0.4-1.3-0.7-2.1-0.7L56.8,41.1z"/>
	<path d="M51.6,50.4l-0.3,0.1c0.1,0.2,0.1,0.4,0.1,0.5l0,0.1c0,0.1,0.1,0.3,0.2,0.3l0.3,0.2l0.2-0.2l-0.2,0.2
		c0.2,0.2,0.3,0.4,0.3,0.6c0,0.2-0.1,0.4-0.2,0.6l0.2,0.2l-0.2-0.2c-0.2,0.2-0.4,0.3-0.6,0.3c-0.2,0-0.4-0.1-0.6-0.2l-0.2,0.2
		l0.2-0.2l-0.2-0.2c-0.1-0.1-0.2-0.1-0.3-0.1c-0.1,0-0.3,0-0.4,0c-0.4,0-0.8-0.1-1.1-0.4l0,0c-0.3-0.3-0.5-0.7-0.5-1.1l0-0.3
		c0-0.1,0-0.2-0.1-0.3L48,50.3l-0.2,0.2l0.2-0.2c-0.2-0.2-0.3-0.4-0.3-0.6c0-0.2,0.1-0.4,0.2-0.6l0,0c0.2-0.2,0.4-0.3,0.6-0.3
		c0.2,0,0.4,0.1,0.6,0.2l0,0l0.2,0.3c0.1,0.1,0.2,0.2,0.3,0.2l0.2,0c0.2,0,0.4,0,0.6,0.1l0,0c0.2,0.1,0.3,0.2,0.5,0.3l0.2-0.2
		L51,49.9c0.2,0.2,0.3,0.4,0.4,0.6l0,0L51.6,50.4l0.3-0.1c-0.1-0.3-0.3-0.6-0.5-0.8l0,0c-0.2-0.2-0.4-0.3-0.7-0.4l-0.1,0.3l0.1-0.3
		c-0.3-0.1-0.5-0.2-0.8-0.2l-0.3,0l0,0.3l0.3-0.1c-0.1-0.1-0.2-0.3-0.3-0.4l-0.2,0.2l0.2-0.2c-0.3-0.3-0.6-0.4-1-0.4
		c-0.4,0-0.8,0.2-1.1,0.5l0,0c-0.3,0.3-0.4,0.6-0.4,1c0,0.4,0.2,0.8,0.5,1.1l0,0l0.2,0.2l0.2-0.2l-0.3-0.1c0,0.1,0,0.3,0,0.4
		c0,0.6,0.2,1.2,0.7,1.6l0,0c0.4,0.4,1,0.6,1.5,0.6c0.2,0,0.4,0,0.5-0.1l-0.1-0.3l-0.2,0.2l0.2,0.2l0,0c0.3,0.3,0.6,0.4,1,0.4
		c0.4,0,0.8-0.2,1.1-0.5l0,0c0.3-0.3,0.4-0.6,0.4-1c0-0.4-0.2-0.8-0.5-1.1l0,0C52.2,51.1,52,51,51.9,51l-0.1,0.3l0.3,0l0-0.2
		c0-0.3-0.1-0.5-0.2-0.8L51.6,50.4l0.3-0.1L51.6,50.4z"/>
	<path d="M49.4,50.5l0.2,0.2c0.1-0.1,0.2-0.2,0.4-0.2c0.1,0,0.2,0,0.3,0.1l0,0c0.1,0.1,0.2,0.2,0.2,0.4c0,0.1,0,0.2-0.1,0.3
		c-0.1,0.1-0.2,0.2-0.4,0.2c-0.1,0-0.2,0-0.3-0.1c-0.1-0.1-0.2-0.2-0.2-0.4c0-0.1,0-0.2,0.1-0.3L49.4,50.5l0.2,0.2L49.4,50.5
		l-0.2-0.2c-0.2,0.2-0.3,0.5-0.3,0.8c0,0.3,0.1,0.6,0.3,0.8c0.2,0.2,0.5,0.3,0.8,0.3c0.3,0,0.6-0.1,0.8-0.3c0.2-0.2,0.3-0.5,0.3-0.8
		c0-0.3-0.1-0.6-0.3-0.8l-0.2,0.2l0.2-0.2c-0.2-0.2-0.5-0.3-0.8-0.3c-0.3,0-0.6,0.1-0.8,0.3l0,0L49.4,50.5z"/>
	<path d="M51.1,52.1l0.2,0.2l0.1,0l0.1,0l0,0l0,0.1l0,0.1l0,0l-0.1,0l-0.1,0l0,0l0-0.1l0-0.1L51.1,52.1l0.2,0.2L51.1,52.1l-0.2-0.2
		c-0.1,0.1-0.2,0.3-0.2,0.5c0,0.2,0.1,0.4,0.2,0.5l0,0c0.1,0.1,0.3,0.2,0.5,0.2c0.2,0,0.4-0.1,0.5-0.2l0,0c0.1-0.1,0.2-0.3,0.2-0.5
		c0-0.2-0.1-0.4-0.2-0.5l0,0c-0.1-0.1-0.3-0.2-0.5-0.2c-0.2,0-0.4,0.1-0.5,0.2l0,0L51.1,52.1z"/>
	<path d="M48.3,49.4l0.2,0.2l0.1,0l0.1,0l0.2-0.2l-0.2,0.2l0,0.1l0,0.1l0.2,0.2l-0.2-0.2l-0.1,0l-0.1,0l0-0.1l0-0.1l0,0L48.3,49.4
		l-0.2-0.2c-0.1,0.1-0.2,0.3-0.2,0.5c0,0.2,0.1,0.4,0.2,0.5c0.1,0.1,0.3,0.2,0.5,0.2c0.2,0,0.4-0.1,0.5-0.2l0,0
		c0.1-0.1,0.2-0.3,0.2-0.5c0-0.2-0.1-0.4-0.2-0.5l0,0C48.9,49,48.8,49,48.6,49c-0.2,0-0.4,0.1-0.5,0.2L48.3,49.4l-0.2-0.2L48.3,49.4
		z"/>
	<polyline points="54.1,47.6 51.4,50.2 51.9,50.6 54.5,48 	"/>
	<polyline points="53.1,46.5 50.4,49.1 50.8,49.6 53.5,47 	"/>
	<path d="M15.1,66.2c-0.1,1.2-1,2.1-2.2,2.1c-1.2,0-2.2-1-2.2-2.2c0-1.2,1-2.2,2.2-2.2c0.7,0,1.4,0.4,1.8,0.9l0,0l0,0l0.4-0.4l0,0
		L15,64.6l0.3-0.2c-0.5-0.7-1.3-1.2-2.3-1.2c-1.6,0-2.8,1.3-2.8,2.8s1.3,2.8,2.8,2.8c1.5,0,2.7-1.2,2.8-2.7L15.1,66.2z"/>
	<path d="M42,9.9L42,9.9L42,9.9l0.1,0.6c0,0.2,0.2,0.3,0.4,0.2l0.7-0.2l0.6-0.1l0.7-0.2c0.2,0,0.3-0.2,0.2-0.4l-0.1-0.5l-0.3,0.1
		h0.3v0h-0.6v0l0,0.1l0,0.2l-0.4,0.1l-0.6,0.1L42.7,10l-0.1-0.2l-0.3,0.1h0.3v0H42z"/>
	<path d="M43.5,10.1L43.5,10.1l0.3,0L43.5,10.1L43.5,10.1L43.5,10.1L43.5,10.1L43.5,10.1L43.5,10.1L43.5,10.1L43.5,10.1l-0.6,0.2
		c0.1,0.3,0.3,0.5,0.6,0.5c0.4,0,0.6-0.3,0.6-0.6l0,0l0-0.1L43.5,10.1z"/>
	<path d="M55.9,44.3L55.9,44.3L55.9,44.3L55.6,41l-2.9-27.1l-0.2-2.1l0,0l-0.1-0.9l-0.1-0.2L52,10.6C35.3,13,25.8,25,21.9,40.9l0,0
		l-3.5,13.8l-0.2,0.9L16,64.2v0c-0.2,0.7-0.5,1.3-0.8,1.7l0,0c-0.5,0.6-1.3,1-2.3,1C12.4,67,12,66.5,12,66c0-0.5,0.4-0.9,0.9-0.9
		c0.4,0,0.7,0.2,0.9,0.6c0,0.1,0.2,0.2,0.3,0.2c0.3,0,0.5-0.1,0.7-0.3c0.2-0.2,0.3-0.4,0.4-0.6l0,0l0.1-0.3L15,64.6l0.3,0.1
		c0.2-0.4,0.3-0.9,0.4-1.5v0l1.9-8v0l0.2-0.9v0L20.9,41L20.6,41l0.3,0.1C23,32.4,26.6,24.9,32,19.3l0,0c0.1-0.1,0.2-0.2,0.3-0.4l0,0
		c5-5,11.5-8.4,19.7-9.6c0.2,0,0.3-0.2,0.3-0.3l0-0.4l0-0.5v0l-0.4-5.8H53l0,0.1l0,0l0.2,1.8l0,0l0.5,4.6l0.2,1.9l0.3,0l-0.3,0
		l0.1,0.9v0l0.2,2.1l0,0l2.3,27.1l0.2,2.4l0.6-0.1l-0.2-2.4l-2.3-27.1l0,0l-0.2-2.1v0l-0.1-0.9v0l-0.2-1.9l-0.5-4.6l0,0l-0.2-1.8
		l-0.3,0l0.3,0l0-0.4c0-0.2-0.1-0.3-0.3-0.3h-1.8l-0.2,0.1L51.2,2l0.4,6.1l0,0.5l0,0l0,0.4L52,9l0-0.3c-8.3,1.2-14.9,4.7-20,9.8
		l0.2,0.2L32,18.4c-0.2,0.1-0.3,0.3-0.4,0.4l0.2,0.2l-0.2-0.2c-5.5,5.7-9.2,13.3-11.3,22v0l-3.1,13.3v0L17,55v0l-1.9,8l0.3,0.1
		L15.1,63c-0.1,0.6-0.3,1.1-0.4,1.4l0,0l-0.1,0.3l0.3,0.1l-0.3-0.1c-0.1,0.2-0.2,0.3-0.3,0.4l-0.2,0.1v0.3l0.3-0.1
		c-0.2-0.6-0.8-0.9-1.4-0.9c-0.9,0-1.6,0.7-1.6,1.6c0,0.9,0.7,1.6,1.6,1.6c1.2,0,2.1-0.4,2.8-1.2l0,0c0.4-0.5,0.8-1.2,1-2v0l2.2-8.6
		l0.2-0.9L22.5,41l0,0c3.9-15.8,13.1-27.4,29.6-29.8l0-0.3l-0.3,0l0.1,0.9l0,0l0.2,2.1L55,41l0.3,3.3v0L55.9,44.3L55.9,44.3z"/>
	<polyline points="53.7,1.6 53.1,2.2 53.6,2.6 54.1,2.1 	"/>
	<polyline points="54.3,2.5 53.3,4 53.8,4.4 54.8,2.8 	"/>
	<polyline points="52,9.3 54.1,9.1 54,8.5 52,8.7 	"/>
	<polyline points="52.1,11.2 54.3,11 54.2,10.4 52,10.6 	"/>
</g>
</svg>
